<svg width="124" height="123" viewBox="0 0 124 123" fill="none" xmlns="http://www.w3.org/2000/svg">
<circle cx="62.457" cy="61.5" r="61.5" fill="#D9D9D9"/>
<path d="M84.6235 81.0002H78.9569V56.2085L61.9569 66.8335L44.9569 56.2085V81.0002H39.2902V47.0002H42.6902L61.9569 59.0418L81.2235 47.0002H84.6235M84.6235 41.3335H39.2902C36.1452 41.3335 33.6235 43.8552 33.6235 47.0002V81.0002C33.6235 82.5031 34.2206 83.9444 35.2833 85.0071C36.346 86.0698 37.7873 86.6668 39.2902 86.6668H84.6235C86.1264 86.6668 87.5678 86.0698 88.6305 85.0071C89.6932 83.9444 90.2902 82.5031 90.2902 81.0002V47.0002C90.2902 45.4973 89.6932 44.0559 88.6305 42.9932C87.5678 41.9305 86.1264 41.3335 84.6235 41.3335Z" fill="#4E7175"/>
</svg>
