<svg width="124" height="124" viewBox="0 0 124 124" fill="none" xmlns="http://www.w3.org/2000/svg">
<circle cx="62.2977" cy="61.6595" r="61.6595" fill="#D9D9D9"/>
<path d="M84.9642 41.7027C82.3549 39.067 79.2469 36.9773 75.8215 35.5553C72.3961 34.1333 68.7218 33.4077 65.0131 33.4206C49.4734 33.4206 36.8083 46.0857 36.8083 61.6254C36.8083 66.606 38.1175 71.4444 40.5651 75.7135L36.5806 90.3425L51.5226 86.4148C55.6494 88.6633 60.2885 89.8586 65.0131 89.8586C80.5527 89.8586 93.2179 77.1935 93.2179 61.6538C93.2179 54.1117 90.2864 47.0249 84.9642 41.7027ZM65.0131 85.0772C60.8008 85.0772 56.674 83.9387 53.0595 81.8042L52.2056 81.2919L43.3258 83.6257L45.6881 74.9736L45.1189 74.0913C42.7786 70.3543 41.536 66.0347 41.5328 61.6254C41.5328 48.7041 52.0633 38.1736 64.9846 38.1736C71.246 38.1736 77.1374 40.6212 81.5489 45.0611C83.7332 47.2354 85.4642 49.8217 86.6416 52.6699C87.8191 55.5182 88.4194 58.5718 88.408 61.6538C88.4649 74.5751 77.9343 85.0772 65.0131 85.0772ZM77.8774 67.5452C77.1659 67.2037 73.6936 65.4961 73.0675 65.2399C72.4129 65.0122 71.9575 64.8984 71.4737 65.5814C70.9899 66.293 69.6522 67.8868 69.2537 68.3422C68.8553 68.826 68.4284 68.8829 67.7168 68.5129C67.0053 68.1714 64.7284 67.4029 62.0531 65.0122C59.947 63.1338 58.5524 60.8285 58.1255 60.1169C57.727 59.4054 58.0686 59.0354 58.4386 58.6654C58.7516 58.3524 59.1501 57.8401 59.4916 57.4416C59.8332 57.0432 59.9755 56.7301 60.2032 56.2747C60.4308 55.7909 60.317 55.3924 60.1462 55.0509C59.9755 54.7094 58.5524 51.2371 57.9832 49.8141C57.414 48.448 56.8163 48.6187 56.3894 48.5903H55.0233C54.5394 48.5903 53.7994 48.761 53.1448 49.4725C52.5187 50.1841 50.6972 51.8917 50.6972 55.364C50.6972 58.8362 53.2302 62.1946 53.5718 62.65C53.9133 63.1338 58.5524 70.249 65.6107 73.2944C67.2899 74.0343 68.5991 74.4613 69.6237 74.7743C71.3029 75.3151 72.8398 75.2297 74.0636 75.0589C75.4298 74.8597 78.2474 73.3513 78.8166 71.7005C79.4143 70.0498 79.4143 68.6552 79.2151 68.3422C79.0158 68.0291 78.5889 67.8868 77.8774 67.5452Z" fill="#4E7175"/>
</svg>
