<svg width="124" height="124" viewBox="0 0 124 124" fill="none" xmlns="http://www.w3.org/2000/svg">
<circle cx="61.9786" cy="61.6595" r="61.6595" fill="#D9D9D9"/>
<path d="M62.2685 32.8184C45.7722 32.8117 32.4111 46.1661 32.4111 62.649C32.4111 75.6832 40.7693 86.763 52.4094 90.832C53.977 91.2255 53.7368 90.1116 53.7368 89.3511V84.1815C44.6849 85.2421 44.318 79.2519 43.711 78.2514C42.4836 76.1568 39.582 75.6232 40.4491 74.6226C42.5103 73.562 44.6115 74.8894 47.0463 78.4848C48.8073 81.093 52.2426 80.6527 53.9837 80.2192C54.3639 78.6516 55.1777 77.2508 56.2983 76.1635C46.9196 74.4825 43.0106 68.7592 43.0106 61.9552C43.0106 58.6533 44.0979 55.6182 46.2325 53.1702C44.8717 49.1345 46.3592 45.6791 46.5593 45.1655C50.4349 44.8186 54.4639 47.9405 54.7774 48.1873C56.9787 47.5936 59.4935 47.2801 62.3085 47.2801C65.1368 47.2801 67.6583 47.6069 69.8795 48.2073C70.6333 47.6336 74.3688 44.9521 77.9709 45.2789C78.1644 45.7925 79.6185 49.1678 78.3378 53.1501C80.499 55.6049 81.5997 58.6667 81.5997 61.9753C81.5997 68.7925 77.6641 74.5225 68.2586 76.1768C69.0642 76.9691 69.7039 77.9139 70.1402 78.9561C70.5766 79.9984 70.8009 81.1171 70.8001 82.247V89.7514C70.8534 90.3517 70.8001 90.9454 71.8007 90.9454C83.6142 86.9631 92.1191 75.8033 92.1191 62.6557C92.1191 46.1661 78.7514 32.8184 62.2685 32.8184Z" fill="#4E7175"/>
</svg>
