<svg width="124" height="124" viewBox="0 0 124 124" fill="none" xmlns="http://www.w3.org/2000/svg">
<circle cx="61.6595" cy="61.6595" r="61.6595" fill="#D9D9D9"/>
<path d="M81.8043 40.645C83.314 40.645 84.7618 41.2447 85.8293 42.3122C86.8968 43.3797 87.4965 44.8275 87.4965 46.3372V86.1825C87.4965 87.6922 86.8968 89.14 85.8293 90.2075C84.7618 91.275 83.314 91.8747 81.8043 91.8747H41.959C40.4494 91.8747 39.0015 91.275 37.934 90.2075C36.8666 89.14 36.2668 87.6922 36.2668 86.1825V46.3372C36.2668 44.8275 36.8666 43.3797 37.934 42.3122C39.0015 41.2447 40.4494 40.645 41.959 40.645H81.8043ZM80.3813 84.7595V69.6752C80.3813 67.2144 79.4038 64.8545 77.6638 63.1144C75.9237 61.3744 73.5638 60.3969 71.103 60.3969C68.6838 60.3969 65.8662 61.8769 64.5001 64.0968V60.9377H56.5595V84.7595H64.5001V70.7282C64.5001 68.5367 66.2647 66.7437 68.4562 66.7437C69.5129 66.7437 70.5264 67.1635 71.2737 67.9107C72.0209 68.658 72.4407 69.6715 72.4407 70.7282V84.7595H80.3813ZM47.3097 56.4693C48.5778 56.4693 49.794 55.9655 50.6907 55.0688C51.5874 54.1722 52.0911 52.956 52.0911 51.6879C52.0911 49.041 49.9566 46.878 47.3097 46.878C46.034 46.878 44.8106 47.3847 43.9086 48.2868C43.0065 49.1888 42.4998 50.4122 42.4998 51.6879C42.4998 54.3347 44.6628 56.4693 47.3097 56.4693ZM51.2658 84.7595V60.9377H43.3821V84.7595H51.2658Z" fill="#4E7175"/>
</svg>
