<svg width="200" height="200" viewBox="0 0 200 200" fill="none" xmlns="http://www.w3.org/2000/svg">
<rect width="200" height="200" rx="20" fill="#4E7175"/>
<g clip-path="url(#clip0_77_106)">
<path d="M141.02 72.1258L104.283 50.9164C102.167 49.6945 98.7037 49.6945 96.5875 50.9164L59.8518 72.1258C57.7354 73.3477 56.0039 76.3469 56.0039 78.7906V121.209C56.1686 124.055 57.6223 126.413 59.8516 127.874L96.5879 149.083C98.7039 150.305 102.167 150.305 104.283 149.083L141.02 127.874C143.412 126.283 144.773 123.888 144.867 121.209V78.7906C144.781 76.2193 143.242 73.626 141.02 72.1258ZM70.8145 100C70.6404 71.0764 109.381 58.3049 126.087 85.1803L113.268 92.5982C105.529 79.7988 86.3147 84.3756 85.625 100C85.832 114.4 104.718 121.09 113.269 107.401L126.088 114.819C111.365 140.378 71.5566 131.182 70.8145 100ZM130.057 101.646H126.765V104.937H123.475V101.646H120.183V98.3545H123.475V95.0635H126.766V98.3545H130.057L130.057 101.646ZM142.399 101.646H139.107V104.937H135.816V101.646H132.525V98.3545H135.817V95.0635H139.108V98.3545H142.399L142.399 101.646Z" fill="white"/>
</g>
<defs>
<clipPath id="clip0_77_106">
<rect width="88.875" height="100" fill="white" transform="translate(56 50)"/>
</clipPath>
</defs>
</svg>
