<svg width="200" height="200" viewBox="0 0 200 200" fill="none" xmlns="http://www.w3.org/2000/svg">
<rect width="200" height="200" rx="20" fill="#4E7175"/>
<path d="M85.9168 58.3335C82.6015 58.3335 79.4221 59.6505 77.0779 61.9947C74.7337 64.3389 73.4168 67.5183 73.4168 70.8335C73.4168 74.1487 74.7337 77.3281 77.0779 79.6723C79.4221 82.0165 82.6015 83.3335 85.9168 83.3335H115.083C118.399 83.3335 121.578 82.0165 123.922 79.6723C126.266 77.3281 127.583 74.1487 127.583 70.8335C127.583 67.5183 126.266 64.3389 123.922 61.9947C121.578 59.6505 118.399 58.3335 115.083 58.3335H85.9168ZM115.083 87.5002C111.768 87.5002 108.589 88.8171 106.245 91.1613C103.9 93.5055 102.583 96.685 102.583 100C102.583 103.315 103.9 106.495 106.245 108.839C108.589 111.183 111.768 112.5 115.083 112.5C118.399 112.5 121.578 111.183 123.922 108.839C126.266 106.495 127.583 103.315 127.583 100C127.583 96.685 126.266 93.5055 123.922 91.1613C121.578 88.8171 118.399 87.5002 115.083 87.5002ZM73.4168 100C73.4168 96.685 74.7337 93.5055 77.0779 91.1613C79.4221 88.8171 82.6015 87.5002 85.9168 87.5002H98.4168V112.5H85.9168C82.6015 112.5 79.4221 111.183 77.0779 108.839C74.7337 106.495 73.4168 103.315 73.4168 100ZM85.9168 116.667C83.4445 116.667 81.0277 117.4 78.9721 118.773C76.9165 120.147 75.3144 122.099 74.3683 124.383C73.4222 126.667 73.1746 129.181 73.6569 131.605C74.1393 134.03 75.3298 136.258 77.0779 138.006C78.8261 139.754 81.0534 140.944 83.4781 141.427C85.9029 141.909 88.4162 141.661 90.7003 140.715C92.9844 139.769 94.9366 138.167 96.3101 136.111C97.6836 134.056 98.4168 131.639 98.4168 129.167V116.667H85.9168Z" fill="white"/>
</svg>
