<svg width="200" height="200" viewBox="0 0 200 200" fill="none" xmlns="http://www.w3.org/2000/svg">
<rect width="200" height="200" rx="20" fill="#4E7175"/>
<path d="M52.9647 92.9447L81.8864 63.973L90.3428 72.4794C89.1419 76.7326 91.0933 81.386 94.9962 83.6377V111.359C91.994 113.06 89.9925 116.312 89.9925 120.015C89.9925 122.669 91.0469 125.215 92.9236 127.091C94.8004 128.968 97.3458 130.023 100 130.023C102.654 130.023 105.2 128.968 107.076 127.091C108.953 125.215 110.008 122.669 110.008 120.015C110.008 116.312 108.006 113.06 105.004 111.359V87.0403L115.362 97.4981C115.011 98.2487 115.011 99.0993 115.011 100C115.011 102.654 116.066 105.2 117.942 107.076C119.819 108.953 122.365 110.008 125.019 110.008C127.673 110.008 130.218 108.953 132.095 107.076C133.972 105.2 135.026 102.654 135.026 100C135.026 97.3458 133.972 94.8004 132.095 92.9236C130.218 91.0469 127.673 89.9925 125.019 89.9925C124.118 89.9925 123.267 89.9925 122.517 90.3428L109.657 77.4831C110.279 75.1656 110.038 72.7013 108.979 70.5479C107.921 68.3945 106.117 66.6983 103.903 65.7743C101.751 64.9737 99.4996 64.7736 97.4981 65.324L88.9917 56.8677L92.9447 52.9647C96.8476 49.0118 103.152 49.0118 107.055 52.9647L147.035 92.9447C150.988 96.8476 150.988 103.152 147.035 107.055L107.055 147.035C103.152 150.988 96.8476 150.988 92.9447 147.035L52.9647 107.055C49.0118 103.152 49.0118 96.8476 52.9647 92.9447Z" fill="white"/>
</svg>
