<svg width="200" height="200" viewBox="0 0 200 200" fill="none" xmlns="http://www.w3.org/2000/svg">
<rect width="200" height="200" rx="20" fill="#4E7175"/>
<g clip-path="url(#clip0_77_104)">
<mask id="mask0_77_104" style="mask-type:luminance" maskUnits="userSpaceOnUse" x="50" y="50" width="100" height="100">
<path d="M50 50H150V150H50V50Z" fill="white"/>
</mask>
<g mask="url(#mask0_77_104)">
<path fill-rule="evenodd" clip-rule="evenodd" d="M50 50H150V150H50V50ZM126.446 133.833C121.808 133.833 119.187 131.417 117.175 128.125L109.537 132.562C112.296 138.012 117.933 142.171 126.662 142.171C135.587 142.171 142.233 137.537 142.233 129.075C142.233 121.229 137.725 117.742 129.742 114.312L127.392 113.308C123.358 111.558 121.612 110.421 121.612 107.6C121.612 105.321 123.362 103.575 126.112 103.575C128.808 103.575 130.546 104.712 132.158 107.6L139.475 102.904C136.379 97.4583 132.087 95.3792 126.112 95.3792C117.721 95.3792 112.35 100.746 112.35 107.796C112.35 115.442 116.85 119.062 123.633 121.95L125.983 122.958C130.271 124.833 132.825 125.975 132.825 129.196C132.825 131.887 130.337 133.833 126.446 133.833ZM90.0292 133.771C86.8 133.771 85.4542 131.562 83.9792 128.937L76.3292 133.571C78.5458 138.262 82.9042 142.154 90.425 142.154C98.7542 142.154 104.458 137.725 104.458 127.996V95.9125H95.0625V127.871C95.0625 132.567 93.1125 133.771 90.025 133.771H90.0292Z" fill="white"/>
</g>
</g>
<defs>
<clipPath id="clip0_77_104">
<rect width="100" height="100" fill="white" transform="translate(50 50)"/>
</clipPath>
</defs>
</svg>
