<svg width="200" height="200" viewBox="0 0 200 200" fill="none" xmlns="http://www.w3.org/2000/svg">
<rect width="200" height="200" rx="20" fill="#4E7175"/>
<path d="M110.2 117.667C107.969 120.839 105.538 123.866 102.921 126.729C109.892 133.492 116.371 136.658 119.967 134.579C123.563 132.504 124.058 125.308 121.688 115.896C118.133 116.688 114.275 117.292 110.2 117.667ZM104.742 118.029C101.583 118.16 98.421 118.16 95.2626 118.029C96.8293 120.079 98.421 121.979 100 123.708C101.583 121.979 103.171 120.083 104.742 118.029ZM125.742 85.1376C136.846 88.3209 144.1 93.6126 144.1 100C144.1 106.388 136.85 111.679 125.746 114.863C128.538 126.071 127.579 134.996 122.05 138.188C116.521 141.383 108.313 137.75 100 129.725C91.6918 137.746 83.4835 141.383 77.9543 138.188C72.421 134.996 71.4668 126.071 74.2585 114.863C63.1543 111.679 55.9043 106.388 55.9043 100C55.9043 93.6126 63.1543 88.3209 74.2585 85.1376C71.4668 73.9292 72.4251 65.0042 77.9543 61.8084C83.4835 58.6167 91.6918 62.2501 100 70.2751C108.313 62.2501 116.521 58.6167 122.05 61.8084C127.579 65.0042 128.538 73.9292 125.746 85.1376H125.742ZM121.688 84.1042C124.063 74.6876 123.563 67.4959 119.967 65.4167C116.371 63.3417 109.892 66.5084 102.925 73.2709C105.54 76.1343 107.97 79.1613 110.2 82.3334C114.275 82.7084 118.133 83.3084 121.688 84.1042ZM78.3126 115.896C75.9418 125.313 76.4376 132.504 80.0376 134.579C83.6335 136.654 90.1126 133.492 97.0793 126.729C94.4638 123.865 92.0338 120.837 89.8043 117.663C85.9414 117.317 82.1044 116.726 78.3168 115.892L78.3126 115.896ZM95.2626 81.9709C98.421 81.8402 101.583 81.8402 104.742 81.9709C103.244 80.0104 101.662 78.1156 100 76.2917C98.4168 78.0251 96.8335 79.9209 95.2626 81.9709ZM89.8043 82.3334C92.034 79.1608 94.4639 76.1338 97.0793 73.2709C90.1126 66.5084 83.6335 63.3417 80.0418 65.4167C76.446 67.4959 75.946 74.6917 78.321 84.1042C81.8751 83.3126 85.7293 82.7126 89.8043 82.3334ZM107.888 113.667C110.856 109.314 113.496 104.746 115.783 100C113.499 95.2543 110.862 90.686 107.896 86.3334C102.644 85.9403 97.3692 85.9403 92.1168 86.3334C89.1479 90.6858 86.5086 95.2541 84.221 100C86.5076 104.746 89.1455 109.314 92.1126 113.667C97.365 114.059 102.639 114.059 107.892 113.667H107.888ZM113.242 113.117C115.804 112.783 118.242 112.358 120.533 111.854C119.784 109.503 118.933 107.186 117.983 104.908C116.518 107.709 114.933 110.447 113.242 113.117ZM86.7585 86.8792C84.196 87.2126 81.7585 87.6417 79.4668 88.1459C80.1751 90.3792 81.0293 92.7042 82.021 95.0917C83.4863 92.2915 85.0668 89.5531 86.7585 86.8834V86.8792ZM79.4668 111.854C81.7585 112.358 84.196 112.783 86.7585 113.117C85.0669 110.447 83.4864 107.709 82.021 104.908C81.0697 107.186 80.2175 109.503 79.4668 111.854ZM75.3918 110.833C76.4835 107.358 77.8918 103.717 79.6001 100C77.9684 96.4821 76.5627 92.8637 75.3918 89.1667C66.0543 91.8167 60.071 95.8501 60.071 100C60.071 104.15 66.0543 108.179 75.3918 110.833ZM120.542 88.1459C118.131 87.6184 115.698 87.1958 113.25 86.8792C114.942 89.549 116.522 92.2874 117.988 95.0876C118.979 92.7042 119.829 90.3792 120.542 88.1459ZM124.613 89.1667C123.529 92.6417 122.113 96.2834 120.404 100C122.113 103.717 123.529 107.358 124.613 110.833C133.954 108.179 139.938 104.15 139.938 100C139.938 95.8501 133.954 91.8209 124.613 89.1667ZM100 107.829C98.9505 107.863 97.9047 107.686 96.9249 107.308C95.9451 106.93 95.0513 106.359 94.2967 105.629C93.5421 104.898 92.9421 104.024 92.5323 103.057C92.1225 102.09 91.9113 101.05 91.9113 100C91.9113 98.9499 92.1225 97.9104 92.5323 96.9435C92.9421 95.9765 93.5421 95.1019 94.2967 94.3715C95.0513 93.6411 95.9451 93.0699 96.9249 92.6919C97.9047 92.3138 98.9505 92.1367 100 92.1709C102.032 92.2372 103.959 93.0911 105.373 94.5521C106.787 96.0132 107.578 97.9668 107.578 100C107.578 102.033 106.787 103.987 105.373 105.448C103.959 106.909 102.032 107.763 100 107.829Z" fill="white"/>
</svg>
