<svg width="200" height="200" viewBox="0 0 200 200" fill="none" xmlns="http://www.w3.org/2000/svg">
<rect width="200" height="200" rx="20" fill="#4E7175"/>
<g clip-path="url(#clip0_77_113)">
<path d="M50 100V150H150V50H50V100ZM130.581 96.0125C132.979 96.5769 135.157 97.8331 136.847 99.625C137.759 100.6 139.125 102.391 139.241 102.831C139.272 102.963 134.928 105.875 132.291 107.503C132.194 107.569 131.803 107.162 131.378 106.525C130.094 104.653 128.741 103.841 126.675 103.694C123.647 103.497 121.694 105.078 121.709 107.731C121.693 108.38 121.838 109.024 122.131 109.603C122.8 110.987 124.053 111.816 127.925 113.494C135.088 116.569 138.147 118.603 140.05 121.484C142.181 124.706 142.653 129.85 141.222 133.691C139.628 137.841 135.688 140.672 130.153 141.6C128.444 141.909 124.375 141.859 122.534 141.519C118.516 140.803 114.706 138.816 112.362 136.212C111.434 135.203 109.644 132.55 109.759 132.372C109.809 132.306 110.216 132.047 110.672 131.784L114.384 129.634L117.266 127.959L117.869 128.853C118.716 130.137 120.553 131.897 121.662 132.481C124.853 134.175 129.231 133.931 131.397 131.994C132.275 131.263 132.766 130.138 132.7 129C132.7 127.844 132.553 127.325 131.95 126.459C131.169 125.353 129.591 124.409 125.081 122.456C119.922 120.225 117.691 118.859 115.675 116.663C114.406 115.216 113.468 113.511 112.925 111.666C112.55 110.25 112.453 106.7 112.747 105.284C113.806 100.288 117.581 96.8219 123 95.7969C124.759 95.4562 128.859 95.5844 130.584 96.0094L130.581 96.0125ZM107.112 100.197L107.144 104.281H94.1219V141.278H84.9094V104.281H71.9063V100.278C71.9063 98.0469 71.9563 96.1937 72.0188 96.1437C72.0688 96.0781 79.9781 96.0469 89.5813 96.0625L107.063 96.1125L107.112 100.197Z" fill="white"/>
</g>
<defs>
<clipPath id="clip0_77_113">
<rect width="100" height="100" fill="white" transform="translate(50 50)"/>
</clipPath>
</defs>
</svg>
